<?xml version="1.0" encoding="UTF-8" standalone="no"?>
<svg
   width="608.71289"
   height="231.58984"
   viewBox="0 0 608.71289 231.58984"
   version="1.1"
   id="svg4"
   sodipodi:docname="FixLab_logo2.svg"
   inkscape:version="1.4.2 (f4327f4, 2025-05-13)"
   inkscape:export-filename="LOGO2500px.png"
   inkscape:export-xdpi="394.27454"
   inkscape:export-ydpi="394.27454"
   xmlns:inkscape="http://www.inkscape.org/namespaces/inkscape"
   xmlns:sodipodi="http://sodipodi.sourceforge.net/DTD/sodipodi-0.dtd"
   xmlns="http://www.w3.org/2000/svg"
   xmlns:svg="http://www.w3.org/2000/svg">
  <defs
     id="defs4" />
  <sodipodi:namedview
     id="namedview4"
     pagecolor="#ffffff"
     bordercolor="#000000"
     borderopacity="0.25"
     inkscape:showpageshadow="2"
     inkscape:pageopacity="0.0"
     inkscape:pagecheckerboard="0"
     inkscape:deskcolor="#d1d1d1"
     inkscape:zoom="0.78808594"
     inkscape:cx="317.22429"
     inkscape:cy="119.91078"
     inkscape:window-width="1920"
     inkscape:window-height="1009"
     inkscape:window-x="-8"
     inkscape:window-y="-8"
     inkscape:window-maximized="1"
     inkscape:current-layer="svg4" />
  <path
     id="path1"
     d="m 387.58984,0 c -13.764,10.549 -19.85764,16.13968 -34.68164,25.42968 1.774,-1.931 5.87628,-5.62412 6.86328,-7.45312 l -0.22461,-0.66602 c -2.95699,0.464 -21.84243,14.83325 -23.77343,17.78125 -24.969,38.12 -45.15747,80.3831 -69.23047,118.8711 -5.222,-8.266 -13.60858,-22.74377 -17.39258,-31.63477 13.421,-10.467 26.63772,-21.19659 39.63672,-32.18359 7.507,-6.245 15.15319,-12.33016 22.24219,-19.03516 -11.347,3.417 -34.08511,12.19428 -43.66211,18.48828 -6.632,4.357 -18.59171,14.39183 -25.34571,19.67383 -6.575,-11.167 -12.44196,-22.95992 -18.91796,-33.91992 -3.109,8.084 -7.41625,15.39109 -10.03125,23.74609 2.79,6.498 8.34742,15.22541 12.10742,21.44141 -10.685,7.776 -21.0748,16.32687 -31.3418,24.67187 -23.453,19.016 -46.24131,38.8405 -68.32031,59.4375 -9.492,8.844 -18.62355,18.16641 -28.06055,26.94141 11.685,-6.523 27.84553,-17.85255 38.89453,-25.56055 24.408,-17.151 48.62739,-34.57086 72.65039,-52.25586 8.05,-5.853 16.80307,-13.00693 24.78907,-18.46093 7.025,9.577 17.24892,23.00393 23.41992,32.96093 -4.398,6.002 -12.59121,15.66807 -15.78321,21.41407 2.266,4.009 7.51285,12.17358 11.21485,14.76757 1.19,0.106 1.91553,-0.0885 2.89453,-0.89453 21.862,-17.987 46.10894,-28.06248 72.33594,-38.27148 16.212,-6.31 31.52773,-12.54952 48.80273,-16.85352 -16.542,18.88 -27.20726,33.84671 -41.57226,54.09571 17.834,-10.459 27.55815,-19.00308 42.78515,-32.83008 5.609,-5.092 24.44867,-25.82095 29.51367,-27.62695 9.411,-3.357 31.3936,-7.00021 41.8086,-8.90821 -0.993,5.621 -5.4245,28.24516 -4.8125,32.28516 0.856,0.955 1.82223,0.98448 3.11523,1.27148 1.582,1.915 0.69989,12.23847 0.58789,15.23047 l 6.22266,-1.96094 c 2.024,-4.841 3.10539,-9.9495 4.90039,-14.6875 4.412,-11.639 8.1675,-24.79062 12.5625,-36.26562 3.571,-0.628 7.49351,-1.23361 10.97852,-2.09961 -3.89501,8.304 -7.66921,16.39441 -11.03321,24.94141 -2.734,7.576 -2.19175,10.99781 0.28125,18.75781 2.453,-1.138 5.89067,-3.01652 7.76367,-4.97852 9.355,-9.799 20.7978,-28.95978 26.7168,-41.05078 13.701,-0.518 57.68024,-2.62401 67.36523,5.45899 l 0.35938,1.02343 c -4.108,7.064 -71.39211,27.75347 -84.78711,33.48047 1.037,1.146 2.08739,2.28035 3.15039,3.40235 -32.732,14.393 -90.38291,37.48386 -124.8789,53.38086 -0.227,0.341 -0.45465,0.68243 -0.68165,1.02343 2.963,-0.395 15.39486,-4.17303 18.75586,-5.08203 17.311,-4.678 34.5353,-10.14239 51.7793,-15.15039 14.596,-4.247 29.2332,-8.3534 43.9082,-12.31641 35.465,-9.6 72.49404,-18.03621 104.83203,-35.94921 6.96301,-3.856 14.95232,-7.92272 19.69532,-14.51172 -5.691,-15.143 -21.85971,-25.36449 -37.34571,-28.02149 8.689,-4.075 19.02314,-5.20028 26.74415,-11.11328 5.101,-3.908 9.43526,-9.66634 13.32226,-14.77734 -3.49,-7.15 -10.21355,-13.61085 -16.43555,-18.46485 -11.759,-0.888 -44.65901,6.95369 -56.79101,10.42969 4.35,-8.373 10.72537,-18.40769 15.60937,-26.67969 6.141,-10.401 12.57641,-21.95682 19.06641,-32.04882 -13,7.805 -32.43889,20.33775 -44.08789,30.09375 -3.361,2.814 -12.54741,21.0372 -15.56641,26.2832 -7.666,13.325 -15.58336,27.20719 -23.06836,40.74219 -4.228,0.5 -8.12217,1.10487 -12.32617,1.79687 2.098,-7.296 13.43585,-42.97245 12.33985,-48.06445 -2.96701,-1.795 -26.65851,4.0148 -31.8125,4.4668 -6.7,0.589 -16.11263,10.22098 -21.14063,14.70898 -9.915,8.816 -19.26025,18.03363 -28.53125,27.51563 -1.901,1.94399 -11.14258,11.60545 -13.14258,12.18945 -22.27,6.511 -45.05709,11.62887 -67.49609,17.67187 -10.047,2.705 -20.44555,5.53914 -30.56055,7.86914 11.285,-20.987 24.12217,-41.86465 35.70117,-62.84765 15.771,-28.578 31.22152,-58.89027 52.22852,-83.94727 1.344,-1.561 5.25762,-5.42787 4.89062,-7.17187 z M 267.11133,20.08398 c -0.31,0.024 -0.63678,-0.01 -0.92578,0.10547 -27.369,4.346 -54.80769,8.2425 -82.30469,11.6875 -15.416,1.962 -32.9937,3.61169 -48.0957,6.30469 -1.663,-0.967 -2.80569,-1.91053 -4.67969,-1.89453 -0.841,0.469 -1.47675,0.88304 -2.21875,1.49804 -3.478,2.88 -55.66144,8.9826 -65.52344,10.8086 -10.357,1.918 -30.01989,11.96232 -39.33789,17.36132 12.883,0.10501 25.42241,0.32777 38.31641,-0.24023 11.004,-0.485 21.85397,-1.72028 32.79297,-2.36328 -6.524,11.383 -14.12727,22.6468 -20.44727,33.8418 -21.22,5.235 -36.38319,10.63984 -56.61719,19.08984 7.269,-0.901 15.72069,-0.89713 23.17969,-1.45313 8.123,-0.606 15.8007,-1.82654 23.8457,-2.56054 -14.853,25.659 -31.53404,45.77173 -45.49804,73.42773 -7.056,12.877 -15.05166,26.4115 -19.59766,40.3125 7.516,-11.135 15.92403,-22.65234 24.33203,-33.15234 2.579,-3.221 8.21689,-5.64152 11.21289,-8.60352 14.627,-15.382 29.77156,-30.09218 41.22656,-48.11718 1.75,-2.754 10.45924,-15.73329 12.74024,-16.86329 19.805,-9.804 43.41708,-14.62554 63.20508,-25.06054 4.061,-2.142 12.85704,-7.03796 16.12304,-7.37696 l 0.32032,-0.77148 c -4.186,-1.865 -54.06435,3.39414 -61.27735,4.36914 2.59,-4.829 16.28169,-24.59889 20.30469,-29.21289 13.771,-1.876 29.70217,-5.10413 43.32617,-7.95313 9.118,-1.90599 21.94631,-7.45956 31.07031,-10.85156 12.472,-4.64 24.9813,-9.17542 37.5293,-13.60742 4.332,-1.578 24.71605,-7.12661 26.99805,-8.72461 z m -46.61719,34.03906 c -7.746,2.62 -24.1922,8.78029 -30.9082,13.23829 -4.547,3.018 -12.56878,18.84334 -15.67578,24.65234 l 0.002,1.07812 0.36523,0.25 c 11.571,-3.991 22.88405,-8.69589 33.87305,-14.08789 1.691,-3.117 12.34872,-22.36475 12.63672,-24.71875 z m 355.36523,29.47461 c 2.50238,0.1075 5.00149,0.3386 7.89649,0.6211 -9.802,8.617 -43.51733,23.05897 -56.73633,26.79297 -3.649,0.925 -9.48351,1.69036 -13.47851,2.44335 5.442,-8.67399 10.77314,-17.41465 15.99414,-26.22265 12.486,-0.704 25.26611,-2.84877 38.41211,-3.50977 2.9045,-0.2155 5.40973,-0.2325 7.9121,-0.125 z m -370.94335,8.14649 c -10.452,2.135 -26.23296,5.76239 -36.25196,9.40039 -5.116,8.278 -45.73237,81.94114 -45.48437,84.36914 11.622,-12.137 22.46394,-22.87952 35.96094,-32.72852 2.66399,-1.944 12.62239,-18.10451 15.65039,-22.22851 5.924,-8.081 12.05843,-16.00563 18.39843,-23.76563 2.136,-2.592 11.39257,-12.74387 11.72657,-15.04687 z m 251.24218,5.19531 c 0.804,2.693 -3.63401,19.31431 -4.41601,23.44531 -8.163,1.021 -16.32166,2.09003 -24.47266,3.20703 -0.268,-2.931 24.99267,-24.23934 28.88867,-26.65234 z" />
</svg>
